<svg width="92" height="130" viewBox="0 0 92 130" fill="none" xmlns="http://www.w3.org/2000/svg">
<path style="mix-blend-mode:overlay" opacity="0.8" d="M46 130C70.6877 130 90.7011 127.053 90.7011 123.418C90.7011 119.783 70.6877 116.836 46 116.836C21.3122 116.836 1.29879 119.783 1.29879 123.418C1.29879 127.053 21.3122 130 46 130Z" fill="url(#paint0_radial_3_10282)"/>
<path d="M91.8142 73.4037C91.8142 107.479 71.3039 123.418 46 123.418C30.4688 123.418 16.7483 117.422 8.46701 104.911C7.78432 103.895 7.14615 102.826 6.55251 101.72C5.85499 100.459 5.22424 99.1455 4.64544 97.7653C4.32636 97.0084 4.02212 96.2367 3.73272 95.4501C3.08713 93.6914 2.52317 91.8511 2.05568 89.9218C0.831297 84.9797 0.178291 79.4811 0.178291 73.4037V73.285C0.178291 73.0401 0.178291 72.8027 0.178291 72.5578C0.178291 71.7638 0.207973 70.9698 0.237655 70.1684C0.44543 64.373 1.232 58.4588 2.51575 52.656C2.92388 50.8008 3.38395 48.9531 3.89597 47.1277C4.13343 46.2521 4.39314 45.3764 4.66028 44.5082C5.08325 43.1058 5.5359 41.7404 6.01824 40.375C6.72319 38.3566 7.49492 36.3754 8.3186 34.4386C9.23874 32.257 10.2331 30.1421 11.2868 28.0941C19.7017 11.806 32.131 0 46 0C48.1593 0 50.289 0.2894 52.3668 0.838518C53.9028 1.23923 55.4166 1.78092 56.9007 2.46361C58.2364 3.06467 59.5424 3.76962 60.8262 4.57846C61.3679 4.9198 61.8947 5.26857 62.4216 5.64701C62.7481 5.86963 63.0746 6.10708 63.4011 6.35196C64.6032 7.24984 65.7756 8.22935 66.9184 9.2979C71.0516 13.112 74.8213 17.9354 78.1011 23.4266C82.0785 30.0679 85.3435 37.6962 87.6884 45.6955C88.104 47.1203 88.4973 48.5598 88.846 50.0068C89.1651 51.2535 89.4471 52.515 89.7068 53.7765C91.0796 60.3065 91.8142 66.9479 91.8142 73.4037Z" fill="#DA385D"/>
<path d="M91.2948 63.7423H0.712566C0.77193 63.2006 0.831295 62.6589 0.9055 62.1172C1.12069 60.3363 1.38783 58.5554 1.70692 56.7818C1.95179 55.4016 2.22635 54.0288 2.53059 52.656C2.93872 50.8009 3.39879 48.9532 3.91081 47.1278C4.14827 46.2521 4.40798 45.3765 4.67512 44.5083C5.09809 43.1058 5.55074 41.7405 6.03308 40.3751C6.47089 39.121 6.93838 37.8818 7.42813 36.6574C7.71753 35.9079 8.02177 35.1733 8.33343 34.4387C9.25358 32.257 10.2479 30.1422 11.3016 28.0941C12.7041 25.3708 14.2253 22.7662 15.8504 20.3323C16.6593 19.1005 17.5052 17.9058 18.3734 16.763C19.6275 15.1008 20.9335 13.5351 22.284 12.0732C24.5621 12.8821 26.484 14.433 27.7678 16.4291C29.6971 13.4312 33.0586 11.4425 36.8876 11.4425C40.7166 11.4425 44.0706 13.4312 46 16.4291C47.9367 13.4312 51.2908 11.4425 55.1198 11.4425C58.9488 11.4425 62.3103 13.4312 64.2396 16.4291C65.5233 14.433 67.4378 12.8895 69.7085 12.0807C71.0665 13.5351 72.3725 15.1008 73.634 16.763C74.5022 17.9132 75.3407 19.1005 76.1569 20.3397C76.8322 21.3415 77.4778 22.3729 78.1085 23.4266C80.5573 27.5079 82.7315 31.9676 84.5866 36.65C85.7517 39.5885 86.7905 42.6161 87.6958 45.6956C88.1114 47.1203 88.5047 48.5599 88.8534 50.0069C89.1725 51.2536 89.4545 52.5151 89.7142 53.7765C89.9294 54.7783 90.1223 55.7801 90.3004 56.7893C90.6195 58.5628 90.8867 60.3437 91.1019 62.1172C91.1761 62.6589 91.2354 63.2006 91.2948 63.7423Z" fill="#00B19B"/>
<path d="M21.2971 19.5383C21.2971 21.0818 20.0504 22.321 18.5144 22.321C17.2455 22.321 16.1843 21.4825 15.8504 20.3323C16.6593 19.1005 17.5052 17.9058 18.3734 16.763C18.4179 16.7556 18.4699 16.7556 18.5144 16.7556C20.0504 16.7556 21.2971 18.0023 21.2971 19.5383Z" fill="#FCD1C0"/>
<path d="M36.8356 22.321C38.3725 22.321 39.6183 21.0751 39.6183 19.5383C39.6183 18.0015 38.3725 16.7556 36.8356 16.7556C35.2988 16.7556 34.0529 18.0015 34.0529 19.5383C34.0529 21.0751 35.2988 22.321 36.8356 22.321Z" fill="#FCD1C0"/>
<path d="M55.1643 22.321C56.7011 22.321 57.947 21.0751 57.947 19.5383C57.947 18.0015 56.7011 16.7556 55.1643 16.7556C53.6275 16.7556 52.3816 18.0015 52.3816 19.5383C52.3816 21.0751 53.6275 22.321 55.1643 22.321Z" fill="#FCD1C0"/>
<path d="M76.1569 20.3397C75.8156 21.4899 74.7545 22.321 73.493 22.321C71.9569 22.321 70.7103 21.0818 70.7103 19.5383C70.7103 17.9948 71.9569 16.7556 73.493 16.7556C73.5375 16.7556 73.5894 16.7556 73.634 16.763C74.5022 17.9132 75.3407 19.1005 76.1569 20.3397Z" fill="#FCD1C0"/>
<path d="M91.8216 73.4038C91.8216 75.4444 91.7474 77.4183 91.599 79.3328C91.4655 81.2102 91.2503 83.0282 90.9831 84.7795C90.8941 85.3137 90.805 85.848 90.7086 86.3674H1.30621C1.20232 85.848 1.11328 85.3137 1.03165 84.7795C0.757091 83.0282 0.541896 81.2102 0.408326 79.3328C0.259916 77.4257 0.185711 75.4444 0.185711 73.4038V73.2851C0.185711 73.0402 0.185711 72.8027 0.185711 72.5579C0.185711 71.7639 0.215393 70.9699 0.245075 70.1685C0.274757 69.3077 0.31928 68.4469 0.378644 67.5787C0.46027 66.3024 0.571578 65.026 0.705147 63.7423C0.764511 63.2006 0.823875 62.6589 0.89808 62.1172C1.11328 60.3363 1.38041 58.5554 1.6995 56.7818C1.94437 55.4016 2.21893 54.0288 2.52317 52.656C2.9313 50.8009 3.39137 48.9532 3.90339 47.1278C4.14085 46.2521 4.40056 45.3765 4.6677 44.5083C5.09067 43.1058 5.54332 41.7405 6.02566 40.3751C6.46347 39.121 6.93096 37.8818 7.42071 36.6574C8.23697 37.3475 8.94934 38.1564 9.52814 39.0542C11.4575 36.0638 14.8115 34.0751 18.6405 34.0751C22.4695 34.0751 25.831 36.0638 27.7603 39.0542C29.6897 36.0638 33.0512 34.0751 36.8802 34.0751C40.7091 34.0751 44.0632 36.0638 45.9926 39.0542C47.9293 36.0638 51.2834 34.0751 55.1124 34.0751C58.9413 34.0751 62.3028 36.0638 64.2322 39.0542C66.1615 36.0638 69.523 34.0751 73.352 34.0751C77.181 34.0751 80.535 36.0638 82.4644 39.0542C83.0506 38.1564 83.763 37.3401 84.5792 36.65C85.7442 39.5885 86.7831 42.6161 87.6884 45.6956C88.104 47.1203 88.4973 48.5599 88.846 50.0069C89.1651 51.2536 89.4471 52.5151 89.7068 53.7765C89.922 54.7783 90.1149 55.7801 90.293 56.7893C90.6121 58.5628 90.8792 60.3437 91.0944 62.1172C91.1686 62.6589 91.228 63.2006 91.2874 63.7423C91.4209 65.026 91.5322 66.3024 91.6139 67.5787C91.7474 69.5303 91.8142 71.4745 91.8142 73.4038H91.8216Z" fill="#20348A"/>
<path d="M18.507 44.9536C20.0438 44.9536 21.2897 43.7077 21.2897 42.1709C21.2897 40.634 20.0438 39.3882 18.507 39.3882C16.9701 39.3882 15.7243 40.634 15.7243 42.1709C15.7243 43.7077 16.9701 44.9536 18.507 44.9536Z" fill="#FCD1C0"/>
<path d="M36.8356 44.9536C38.3725 44.9536 39.6183 43.7077 39.6183 42.1709C39.6183 40.634 38.3725 39.3882 36.8356 39.3882C35.2988 39.3882 34.0529 40.634 34.0529 42.1709C34.0529 43.7077 35.2988 44.9536 36.8356 44.9536Z" fill="#FCD1C0"/>
<path d="M55.1643 44.9536C56.7011 44.9536 57.947 43.7077 57.947 42.1709C57.947 40.634 56.7011 39.3882 55.1643 39.3882C53.6275 39.3882 52.3816 40.634 52.3816 42.1709C52.3816 43.7077 53.6275 44.9536 55.1643 44.9536Z" fill="#FCD1C0"/>
<path d="M73.493 44.9536C75.0298 44.9536 76.2757 43.7077 76.2757 42.1709C76.2757 40.634 75.0298 39.3882 73.493 39.3882C71.9561 39.3882 70.7103 40.634 70.7103 42.1709C70.7103 43.7077 71.9561 44.9536 73.493 44.9536Z" fill="#FCD1C0"/>
<path d="M91.8216 73.4038C91.8216 75.4444 91.7474 77.4183 91.599 79.3328C91.4655 81.2102 91.2503 83.0282 90.9831 84.7795C90.8941 85.3137 90.805 85.848 90.7086 86.3674C90.5156 87.4583 90.2856 88.5268 90.0407 89.5657C88.423 96.3035 85.7665 101.995 82.2937 106.685C81.7001 107.486 81.0842 108.258 80.4386 109H11.5762C10.9232 108.258 10.3073 107.479 9.72107 106.677C9.28326 106.106 8.87513 105.512 8.47443 104.911C7.79174 103.895 7.15357 102.826 6.55993 101.72C5.8624 100.459 5.23166 99.1456 4.65286 97.7654C4.33378 97.0085 4.02954 96.2367 3.74014 95.4502C3.09455 93.6915 2.53059 91.8512 2.0631 89.9219C2.03342 89.7957 2.00374 89.677 1.98148 89.5583C1.72176 88.5194 1.49914 87.4583 1.30621 86.3674C1.20232 85.848 1.11328 85.3137 1.03165 84.7795C0.757091 83.0282 0.541896 81.2102 0.408326 79.3328C0.259916 77.4257 0.185711 75.4444 0.185711 73.4038V73.2851C0.185711 73.0402 0.185711 72.8027 0.185711 72.5579C0.185711 71.7639 0.215393 70.9699 0.245075 70.1685C0.274757 69.3077 0.31928 68.4469 0.378644 67.5787C0.46027 66.3024 0.571578 65.026 0.705147 63.7423C0.764511 63.2006 0.823875 62.6589 0.89808 62.1172C1.11328 60.3363 1.38041 58.5553 1.6995 56.7818C4.98678 57.1751 7.814 59.0303 9.52814 61.6868C11.4575 58.6889 14.8115 56.7076 18.6405 56.7076C22.4695 56.7076 25.831 58.6889 27.7603 61.6868C29.6897 58.6889 33.0512 56.7076 36.8802 56.7076C40.7091 56.7076 44.0632 58.6889 45.9926 61.6868C47.9293 58.6889 51.2834 56.7076 55.1124 56.7076C58.9413 56.7076 62.3028 58.6889 64.2322 61.6868C66.1615 58.6889 69.523 56.7076 73.352 56.7076C77.181 56.7076 80.535 58.6889 82.4644 61.6868C84.1711 59.0303 87.0057 57.1751 90.293 56.7893C90.6121 58.5628 90.8792 60.3437 91.0944 62.1172C91.1686 62.6589 91.228 63.2006 91.2874 63.7423C91.4209 65.026 91.5322 66.3024 91.6139 67.5787C91.7474 69.5303 91.8142 71.4745 91.8142 73.4038H91.8216Z" fill="#7E2F66"/>
<path d="M2.9684 64.8034C2.9684 66.2727 1.83306 67.4748 0.386065 67.5787C0.46769 66.3024 0.578998 65.026 0.712567 63.7423C0.771931 63.2006 0.831295 62.6589 0.905501 62.1172C1.74402 62.3398 2.42671 62.9483 2.76063 63.7423C2.8942 64.0688 2.9684 64.4324 2.9684 64.8034Z" fill="#FCD1C0"/>
<path d="M18.507 67.5861C20.0438 67.5861 21.2897 66.3403 21.2897 64.8034C21.2897 63.2666 20.0438 62.0208 18.507 62.0208C16.9701 62.0208 15.7243 63.2666 15.7243 64.8034C15.7243 66.3403 16.9701 67.5861 18.507 67.5861Z" fill="#FCD1C0"/>
<path d="M36.8356 67.5861C38.3725 67.5861 39.6183 66.3403 39.6183 64.8034C39.6183 63.2666 38.3725 62.0208 36.8356 62.0208C35.2988 62.0208 34.0529 63.2666 34.0529 64.8034C34.0529 66.3403 35.2988 67.5861 36.8356 67.5861Z" fill="#FCD1C0"/>
<path d="M55.1643 67.5861C56.7011 67.5861 57.947 66.3403 57.947 64.8034C57.947 63.2666 56.7011 62.0208 55.1643 62.0208C53.6275 62.0208 52.3816 63.2666 52.3816 64.8034C52.3816 66.3403 53.6275 67.5861 55.1643 67.5861Z" fill="#FCD1C0"/>
<path d="M73.493 67.5861C75.0298 67.5861 76.2757 66.3403 76.2757 64.8034C76.2757 63.2666 75.0298 62.0208 73.493 62.0208C71.9561 62.0208 70.7103 63.2666 70.7103 64.8034C70.7103 66.3403 71.9561 67.5861 73.493 67.5861Z" fill="#FCD1C0"/>
<path d="M91.6213 67.5787C90.1743 67.4748 89.039 66.2727 89.039 64.8034C89.039 64.4324 89.1132 64.0688 89.2542 63.7423C89.5732 62.9483 90.2559 62.3398 91.1019 62.1172C91.1761 62.6589 91.2354 63.2006 91.2948 63.7423C91.4284 65.026 91.5397 66.3024 91.6213 67.5787Z" fill="#FCD1C0"/>
<path d="M91.599 79.3328C91.4655 81.2102 91.2503 83.0282 90.9831 84.7794C90.8941 85.3137 90.805 85.848 90.7086 86.3674C90.5156 87.4582 90.2856 88.5268 90.0407 89.5656C88.4231 96.3035 85.7665 101.995 82.2937 106.685C81.7001 107.486 81.0842 108.258 80.4386 109C72.046 118.728 59.7353 123.418 46.0074 123.418C32.2794 123.418 19.9614 118.728 11.5762 109C10.9232 108.258 10.3073 107.479 9.72107 106.677C9.28326 106.106 8.87513 105.512 8.47442 104.911C7.79174 103.895 7.15357 102.826 6.55993 101.72C5.8624 100.459 5.23166 99.1455 4.65286 97.7653C4.33378 97.0084 4.02954 96.2367 3.74014 95.4501C3.09455 93.6915 2.53059 91.8512 2.0631 89.9218C2.03342 89.7957 2.00374 89.677 1.98147 89.5582C1.72176 88.5194 1.49914 87.4582 1.30621 86.3674C1.20232 85.848 1.11327 85.3137 1.03165 84.7794C0.757089 83.0282 0.541894 81.2102 0.408325 79.3328C4.23731 79.3328 7.59138 81.3215 9.52814 84.3193C11.4575 81.3215 14.8115 79.3328 18.6405 79.3328C22.4695 79.3328 25.831 81.3215 27.7603 84.3193C29.6897 81.3215 33.0512 79.3328 36.8802 79.3328C40.7091 79.3328 44.0632 81.3215 45.9925 84.3193C47.9293 81.3215 51.2834 79.3328 55.1124 79.3328C58.9413 79.3328 62.3028 81.3215 64.2322 84.3193C66.1615 81.3215 69.523 79.3328 73.352 79.3328C77.181 79.3328 80.535 81.3215 82.4644 84.3193C84.3937 81.3215 87.7552 79.3328 91.5842 79.3328H91.599Z" fill="#F8931D"/>
<path d="M2.9684 87.4287C2.9684 88.282 2.58996 89.0463 1.98147 89.5584C1.72176 88.5195 1.49914 87.4583 1.30621 86.3675C1.20232 85.8481 1.11327 85.3138 1.03165 84.7795C1.8108 85.0244 2.44897 85.6106 2.76063 86.3675C2.8942 86.694 2.9684 87.0502 2.9684 87.4287Z" fill="#FCD1C0"/>
<path d="M18.507 90.2113C20.0438 90.2113 21.2897 88.9654 21.2897 87.4286C21.2897 85.8917 20.0438 84.6459 18.507 84.6459C16.9701 84.6459 15.7243 85.8917 15.7243 87.4286C15.7243 88.9654 16.9701 90.2113 18.507 90.2113Z" fill="#FCD1C0"/>
<path d="M36.8356 90.2113C38.3725 90.2113 39.6183 88.9654 39.6183 87.4286C39.6183 85.8917 38.3725 84.6459 36.8356 84.6459C35.2988 84.6459 34.0529 85.8917 34.0529 87.4286C34.0529 88.9654 35.2988 90.2113 36.8356 90.2113Z" fill="#FCD1C0"/>
<path d="M55.1643 90.2113C56.7011 90.2113 57.947 88.9654 57.947 87.4286C57.947 85.8917 56.7011 84.6459 55.1643 84.6459C53.6275 84.6459 52.3816 85.8917 52.3816 87.4286C52.3816 88.9654 53.6275 90.2113 55.1643 90.2113Z" fill="#FCD1C0"/>
<path d="M73.493 90.2113C75.0298 90.2113 76.2757 88.9654 76.2757 87.4286C76.2757 85.8917 75.0298 84.6459 73.493 84.6459C71.9561 84.6459 70.7103 85.8917 70.7103 87.4286C70.7103 88.9654 71.9561 90.2113 73.493 90.2113Z" fill="#FCD1C0"/>
<path d="M90.9831 84.7795C90.8941 85.3138 90.805 85.8481 90.7086 86.3675C90.5156 87.4583 90.2856 88.5269 90.0407 89.5658C89.4248 89.0538 89.039 88.2894 89.039 87.4287C89.039 87.0502 89.1132 86.694 89.2542 86.3675C89.5584 85.6106 90.1966 85.0244 90.9831 84.7795Z" fill="#FCD1C0"/>
<path d="M82.2937 106.685C81.7001 107.486 81.0842 108.258 80.4386 109C72.046 118.728 59.7353 123.418 46.0074 123.418C32.2794 123.418 19.9614 118.728 11.5762 109C10.9232 108.258 10.3073 107.479 9.72107 106.677C11.6727 103.835 14.9377 101.965 18.6479 101.965C22.3582 101.965 25.8384 103.954 27.7678 106.944C29.6971 103.954 33.0586 101.965 36.8876 101.965C40.7166 101.965 44.0706 103.954 46 106.944C47.9367 103.954 51.2908 101.965 55.1198 101.965C58.9488 101.965 62.3103 103.954 64.2396 106.944C66.1689 103.954 69.5304 101.965 73.3594 101.965C77.1884 101.965 80.3421 103.835 82.2937 106.685Z" fill="#F24026"/>
<path d="M18.507 112.844C20.0438 112.844 21.2897 111.598 21.2897 110.061C21.2897 108.524 20.0438 107.278 18.507 107.278C16.9701 107.278 15.7243 108.524 15.7243 110.061C15.7243 111.598 16.9701 112.844 18.507 112.844Z" fill="#FCD1C0"/>
<path d="M36.8356 112.844C38.3725 112.844 39.6183 111.598 39.6183 110.061C39.6183 108.524 38.3725 107.278 36.8356 107.278C35.2988 107.278 34.0529 108.524 34.0529 110.061C34.0529 111.598 35.2988 112.844 36.8356 112.844Z" fill="#FCD1C0"/>
<path d="M55.1643 112.844C56.7011 112.844 57.947 111.598 57.947 110.061C57.947 108.524 56.7011 107.278 55.1643 107.278C53.6275 107.278 52.3816 108.524 52.3816 110.061C52.3816 111.598 53.6275 112.844 55.1643 112.844Z" fill="#FCD1C0"/>
<path d="M73.493 112.844C75.0298 112.844 76.2757 111.598 76.2757 110.061C76.2757 108.524 75.0298 107.278 73.493 107.278C71.9561 107.278 70.7103 108.524 70.7103 110.061C70.7103 111.598 71.9561 112.844 73.493 112.844Z" fill="#FCD1C0"/>
<g style="mix-blend-mode:overlay">
<path d="M91.8216 73.4037C91.8216 107.486 71.3113 123.418 46 123.418C20.6886 123.418 0.178291 107.479 0.178291 73.4037C0.178291 39.3287 20.696 0 46 0C71.3039 0 91.8216 39.3213 91.8216 73.3963V73.4037Z" fill="url(#paint1_radial_3_10282)"/>
<path d="M91.8216 73.4037C91.8216 107.486 71.3113 123.418 46 123.418C20.6886 123.418 0.178291 107.479 0.178291 73.4037C0.178291 39.3287 20.696 0 46 0C71.3039 0 91.8216 39.3213 91.8216 73.3963V73.4037Z" fill="url(#paint2_radial_3_10282)"/>
</g>
<path opacity="0.8" d="M91.8217 73.3963C91.8217 74.7172 91.792 76.0083 91.7252 77.2698C91.7103 77.7447 91.6807 78.2196 91.6436 78.6871C91.3319 83.4437 90.5824 87.8069 89.4471 91.7918C89.3209 92.2741 89.1725 92.749 89.0241 93.2165C88.1782 95.9027 87.1616 98.4034 85.9743 100.711C85.722 101.216 85.4623 101.706 85.1951 102.188C80.728 110.172 74.2425 115.842 66.5177 119.292C61.123 121.711 55.1124 123.054 48.7604 123.344C48.33 123.366 47.907 123.381 47.4841 123.388C46.9943 123.403 46.4971 123.411 46.0074 123.411C45.5176 123.411 45.0205 123.411 44.5307 123.388C37.7038 123.225 31.2554 121.875 25.4971 119.292C17.7723 115.842 11.2868 110.172 6.81965 102.188C6.55251 101.706 6.28538 101.208 6.0405 100.711C4.85322 98.4034 3.83661 95.9027 2.99067 93.2165C2.84226 92.749 2.69385 92.2741 2.5677 91.7918C1.43236 87.8144 0.682886 83.4437 0.371225 78.6871C0.334122 78.2196 0.311861 77.7447 0.289599 77.2698C0.222814 76.0009 0.193132 74.7172 0.193132 73.3963C0.193132 72.209 0.215394 71.0217 0.274758 69.8196C0.289599 69.3447 0.311861 68.8624 0.341543 68.38C0.59384 63.9277 1.17264 59.4309 2.05568 54.9712C2.14473 54.4814 2.24862 53.9917 2.3525 53.5093C2.8942 50.927 3.53978 48.3595 4.28184 45.8365C4.42283 45.3393 4.57866 44.8496 4.71965 44.3598C6.21117 39.5217 8.03662 34.8393 10.144 30.4464C10.3889 29.9344 10.6486 29.4223 10.9009 28.9103C12.3405 26.0386 13.9137 23.293 15.5981 20.7255C15.9617 20.1764 16.3179 19.6347 16.6889 19.1078C22.0837 11.3385 28.5098 5.32793 35.5667 2.25584C38.6462 0.905303 41.8519 0.126149 45.154 0.014841H45.206C45.4657 0.014841 45.7328 0 45.9926 0C46.2523 0 46.5194 0 46.7791 0.014841H46.8311C50.1332 0.133569 53.3389 0.905303 56.4332 2.25584C63.4975 5.32793 69.9163 11.3385 75.311 19.1078C75.6746 19.6421 76.0382 20.1764 76.4018 20.7255C78.0863 23.293 79.652 26.0386 81.099 28.9103C81.3587 29.4149 81.611 29.9344 81.8559 30.4464C83.9633 34.8393 85.7888 39.5217 87.2803 44.3598C87.4287 44.857 87.5771 45.3468 87.7181 45.8365C88.4602 48.3595 89.0983 50.927 89.6474 53.5093C89.7513 53.9917 89.8552 54.4814 89.9443 54.9712C90.8273 59.4309 91.4061 63.9277 91.6584 68.38C91.6881 68.8624 91.7103 69.3373 91.7252 69.8196C91.7771 71.0143 91.8068 72.209 91.8068 73.3963H91.8217Z" fill="url(#paint3_radial_3_10282)" fill-opacity="0.5"/>
<path opacity="0.7" d="M84.0524 36.3531C93.5135 59.4606 92.8012 81.9596 82.457 86.5974C72.1128 91.2352 56.0622 76.2606 46.601 53.1532C37.1399 30.0457 37.8522 7.54668 48.1964 2.90886C58.5406 -1.72896 74.5912 13.2456 84.0524 36.3531Z" fill="url(#paint4_radial_3_10282)"/>
<defs>
<radialGradient id="paint0_radial_3_10282" cx="0" cy="0" r="1" gradientUnits="userSpaceOnUse" gradientTransform="translate(46.3038 123.352) scale(45.2107 6.45867)">
<stop offset="0.28"/>
<stop offset="1" stop-opacity="0"/>
</radialGradient>
<radialGradient id="paint1_radial_3_10282" cx="0" cy="0" r="1" gradientUnits="userSpaceOnUse" gradientTransform="translate(99.6429 53.7319) scale(103.138 108.295)">
<stop offset="0.35" stop-opacity="0"/>
<stop offset="1" stop-opacity="0.1"/>
</radialGradient>
<radialGradient id="paint2_radial_3_10282" cx="0" cy="0" r="1" gradientUnits="userSpaceOnUse" gradientTransform="translate(76.2703 44.4137) rotate(161.35) scale(67.2892 101.607)">
<stop stop-color="white"/>
<stop offset="0.14" stop-color="white" stop-opacity="0.79"/>
<stop offset="0.64" stop-color="white" stop-opacity="0"/>
</radialGradient>
<radialGradient id="paint3_radial_3_10282" cx="0" cy="0" r="1" gradientUnits="userSpaceOnUse" gradientTransform="translate(77.0337 51.2993) rotate(173.07) scale(81.3214 90.2668)">
<stop offset="0.65" stop-opacity="0"/>
<stop offset="0.9"/>
</radialGradient>
<radialGradient id="paint4_radial_3_10282" cx="0" cy="0" r="1" gradientUnits="userSpaceOnUse" gradientTransform="translate(77.527 27.8264) rotate(155.7) scale(39.1075 92.9286)">
<stop offset="0.13" stop-color="white"/>
<stop offset="0.19" stop-color="white" stop-opacity="0.91"/>
<stop offset="0.34" stop-color="white" stop-opacity="0.66"/>
<stop offset="0.54" stop-color="white" stop-opacity="0.28"/>
<stop offset="0.68" stop-color="white" stop-opacity="0"/>
</radialGradient>
</defs>
</svg>
